<?xml version="1.0" standalone="no"?><!DOCTYPE svg PUBLIC "-//W3C//DTD SVG 1.1//EN" "http://www.w3.org/Graphics/SVG/1.1/DTD/svg11.dtd"><svg t="1582807813415" class="icon" viewBox="0 0 1024 1024" version="1.1" xmlns="http://www.w3.org/2000/svg" p-id="586" xmlns:xlink="http://www.w3.org/1999/xlink" width="200" height="200"><defs><style type="text/css"></style></defs><path d="M231.202 231.914c-71.144 71.8-115.542 170.937-115.542 280.335 0 109.398 44.398 208.534 115.542 280.334 71.714 71.223 170.743 115.67 280.026 115.67 109.283 0 208.303-44.447 280.027-115.66999999 71.704-71.8 116.111-170.936 116.111-280.33400001s-44.407-208.535-116.111-280.33500001c-71.725-71.782-170.744-116.227-280.027-116.22699999-109.283 0-208.312 44.444-280.026 116.227z m-36.43 597.13c-80.82-81.485-130.91-193.141-130.91-316.796 0-123.635 50.089-235.889 130.91-316.795 81.387-80.90700001 192.947-131.04399999 316.456-131.044 123.5 0 235.638 50.136 316.44700001 131.044 80.829 80.906 130.909 193.16 130.90899999 316.796 0 123.655-50.08 235.31-130.909 316.796C746.867 909.95 634.73 960.107 511.228 960.107c-123.509 0-235.069-50.157-316.45699999-131.063zM589.76 751.552c-4.552 4.572-10.804 7.409-18.211 7.409-3.41299999 0-6.829-0.56-9.663-1.717-3.416-1.698-6.271-3.39599999-8.548-5.692l-200.914-221.055c-2.277-2.856-3.985-5.13-5.692-8.565-1.137-2.855-1.706-6.25-1.706-9.684 0-3.414 0.569-6.83 1.706-10.264 1.707-2.835 3.415-5.69 5.692-7.967L553.34 272.944c2.277-2.854 5.132-4.552 8.548-5.69 2.835-1.138 6.25-2.277 9.66300001-2.277 7.40800001 0 13.659 3.41400001 18.20999999 7.966 4.553 4.554 7.408 10.82399999 7.408 18.23 0 3.415-0.56 6.849-1.697 9.684-1.158 2.856-3.434 5.711-5.71 7.988L405.36 512.248l184.4 202.845c2.277 2.275 4.553 5.131 5.71000001 7.966 1.138 3.433 1.698 6.849 1.69799999 10.26300001 0.001 6.828-2.854 13.677-7.407 18.22999999z" p-id="587"></path></svg>